<?xml version="1.0" encoding="utf-8"?>
<!-- Generator: Adobe Illustrator 27.5.0, SVG Export Plug-In . SVG Version: 6.00 Build 0)  -->
<svg version="1.1" id="Layer_1" xmlns="http://www.w3.org/2000/svg" xmlns:xlink="http://www.w3.org/1999/xlink" x="0px" y="0px"
	 viewBox="0 0 472.18 472.18" style="enable-background:new 0 0 472.18 472.18;" xml:space="preserve">
<style type="text/css">
	.st0{display:none;}
	.st1{fill:url(#วงกลม_00000095299178618357823880000009928221061329197225_);}
	.st2{fill:#FFFFFF;}
</style>
<g id="SVGRepo_bgCarrier" class="st0">
</g>
<g id="SVGRepo_tracerCarrier" class="st0">
</g>
<g>
	
		<linearGradient id="วงกลม_00000106122063554554018550000015629183098719692954_" gradientUnits="userSpaceOnUse" x1="0" y1="236.0902" x2="472.1805" y2="236.0902">
		<stop  offset="0" style="stop-color:#F7941D"/>
		<stop  offset="1" style="stop-color:#7F3F98"/>
	</linearGradient>
	
		<circle id="วงกลม" style="fill:url(#วงกลม_00000106122063554554018550000015629183098719692954_);" cx="236.09" cy="236.09" r="236.09"/>
	<g id="logo">
		<path class="st2" d="M144.72,198.3H87.59c-2.58,0-4.61,0.98-6.11,2.93c-1.49,1.95-2.24,4.24-2.24,6.87c0,2.57,0.72,4.75,2.15,6.56
			c1.44,1.81,3.5,2.71,6.2,2.71h33.66c9.08,0,16.26,3.4,21.53,10.2c4.75,6.09,7.12,13.62,7.12,22.59c0,8.91-2.37,16.44-7.12,22.59
			c-5.27,6.8-12.45,10.2-21.53,10.2H59.99v-22.85h57.39c2.46,0,4.39-1.01,5.8-3.03s2.11-4.35,2.11-6.99s-0.67-4.88-2.02-6.72
			c-1.35-1.85-3.31-2.77-5.89-2.77H83.63c-9.14,0-16.38-3.36-21.71-10.09c-4.81-6.03-7.21-13.49-7.21-22.38
			c0-8.78,2.4-16.21,7.21-22.29c5.39-6.79,12.63-10.18,21.71-10.18h61.08V198.3z"/>
		<path class="st2" d="M260.56,282.93h-25.4l-28.04-82.62c-0.18-0.88-0.79-1.32-1.85-1.32c-1,0-1.73,0.44-2.2,1.32l-27.42,82.62
			H149.9c1.46-5.1,4.61-15.23,9.45-30.41c4.83-15.18,9.54-29.53,14.11-43.07c5.1-15.06,8.2-23.44,9.32-25.14
			c2.11-2.99,5.19-5.27,9.23-6.86s8.44-2.37,13.18-2.37s9.13,0.79,13.14,2.37c4.01,1.58,7.08,3.87,9.19,6.86
			c1.29,1.76,4.45,10.08,9.49,24.96c3.11,9.14,7.73,23.5,13.89,43.07C254.64,264.24,257.86,274.44,260.56,282.93z"/>
		<path class="st2" d="M430.89,282.93h-24.43c-1.93-7.5-3.84-15-5.71-22.5c-4.57-17.4-8.58-31.26-12.04-41.57
			c-4.92-14.88-8.53-22.18-10.81-21.88c-1.58,0.35-2.65,0.95-3.21,1.8c-0.56,0.85-0.83,2.04-0.83,3.56v58.98
			c0,6.8-2.81,12.42-8.44,16.88c-5.27,4.16-11.57,6.24-18.9,6.24c-6.33,0-12.01-1.67-17.05-5.01c-5.62-3.75-9.61-9.11-11.95-16.08
			c-0.47-1.41-2.61-9.02-6.42-22.85c-3.46-12.54-6.47-22.35-9.05-29.44c-3.57-9.67-6.47-14.35-8.7-14.06
			c-1.46,0.35-2.49,0.95-3.08,1.8c-0.59,0.85-0.88,2.04-0.88,3.56v80.6h-23.73V196.8c0-7.85,2.96-13.83,8.88-17.93
			c5.1-3.52,11.63-5.27,19.6-5.27c10.66,0,19.13,5.36,25.4,16.08c4.22,7.15,8.23,18.72,12.04,34.72c4.22,17.58,7.29,28.48,9.23,32.7
			c0.58,1.35,1.42,2.4,2.5,3.16c1.08,0.76,2.21,1.14,3.38,1.14c1.05,0,1.89-0.35,2.5-1.05s0.92-1.79,0.92-3.25V196.8
			c0-7.85,2.96-13.83,8.88-17.93c5.1-3.52,11.63-5.27,19.6-5.27c6.5,0,12.25,2.29,17.23,6.86c5.33,4.92,9.37,12.22,12.13,21.88
			L430.89,282.93z"/>
	</g>
	<g>
		<g id="SVGRepo_iconCarrier">
			<path class="st2" d="M293.66,291.47l2.82,5.72c0.2,0.4,0.58,0.67,1.02,0.74l6.32,0.92c1.11,0.16,1.55,1.52,0.75,2.3l-4.57,4.45
				c-0.32,0.31-0.46,0.76-0.39,1.19l1.08,6.29c0.19,1.1-0.97,1.94-1.96,1.42l-5.65-2.97c-0.39-0.21-0.86-0.21-1.26,0l-5.65,2.97
				c-0.99,0.52-2.15-0.32-1.96-1.42l1.08-6.29c0.08-0.44-0.07-0.88-0.39-1.19l-4.57-4.45c-0.8-0.78-0.36-2.14,0.75-2.3l6.32-0.92
				c0.44-0.06,0.82-0.34,1.02-0.74l2.82-5.72C291.74,290.47,293.17,290.47,293.66,291.47z"/>
		</g>
		<g id="SVGRepo_iconCarrier_00000128477565068945272840000014345198967809926061_">
			<path class="st2" d="M354.12,291.47l2.82,5.72c0.2,0.4,0.58,0.67,1.02,0.74l6.32,0.92c1.11,0.16,1.55,1.52,0.75,2.3l-4.57,4.45
				c-0.32,0.31-0.46,0.76-0.39,1.19l1.08,6.29c0.19,1.1-0.97,1.94-1.96,1.42l-5.65-2.97c-0.39-0.21-0.86-0.21-1.26,0l-5.65,2.97
				c-0.99,0.52-2.15-0.32-1.96-1.42l1.08-6.29c0.08-0.44-0.07-0.88-0.39-1.19l-4.57-4.45c-0.8-0.78-0.36-2.14,0.75-2.3l6.32-0.92
				c0.44-0.06,0.82-0.34,1.02-0.74l2.82-5.72C352.2,290.47,353.63,290.47,354.12,291.47z"/>
		</g>
		<g id="SVGRepo_iconCarrier_00000178919960479313662810000013387177744245307318_">
			<path class="st2" d="M323.61,291.47l2.82,5.72c0.2,0.4,0.58,0.67,1.02,0.74l6.32,0.92c1.11,0.16,1.55,1.52,0.75,2.3l-4.57,4.45
				c-0.32,0.31-0.46,0.76-0.39,1.19l1.08,6.29c0.19,1.1-0.97,1.94-1.96,1.42l-5.65-2.97c-0.39-0.21-0.86-0.21-1.26,0l-5.65,2.97
				c-0.99,0.52-2.15-0.32-1.96-1.42l1.08-6.29c0.08-0.44-0.07-0.88-0.39-1.19l-4.57-4.45c-0.8-0.78-0.36-2.14,0.75-2.3l6.32-0.92
				c0.44-0.06,0.82-0.34,1.02-0.74l2.82-5.72C321.68,290.47,323.11,290.47,323.61,291.47z"/>
		</g>
		<g id="SVGRepo_iconCarrier_00000065070151009788754380000008475906701450586529_">
			<path class="st2" d="M382.45,291.47l2.82,5.72c0.2,0.4,0.58,0.67,1.02,0.74l6.32,0.92c1.11,0.16,1.55,1.52,0.75,2.3l-4.57,4.45
				c-0.32,0.31-0.46,0.76-0.39,1.19l1.08,6.29c0.19,1.1-0.97,1.94-1.96,1.42l-5.65-2.97c-0.39-0.21-0.86-0.21-1.26,0l-5.65,2.97
				c-0.99,0.52-2.15-0.32-1.96-1.42l1.08-6.29c0.08-0.44-0.07-0.88-0.39-1.19l-4.57-4.45c-0.8-0.78-0.36-2.14,0.75-2.3l6.32-0.92
				c0.44-0.06,0.82-0.34,1.02-0.74l2.82-5.72C380.52,290.47,381.95,290.47,382.45,291.47z"/>
		</g>
		<g id="SVGRepo_iconCarrier_00000052800553059421907570000014194554937226640526_">
			<path class="st2" d="M411.58,291.47l2.82,5.72c0.2,0.4,0.58,0.67,1.02,0.74l6.32,0.92c1.11,0.16,1.55,1.52,0.75,2.3l-4.57,4.45
				c-0.32,0.31-0.46,0.76-0.39,1.19l1.08,6.29c0.19,1.1-0.97,1.94-1.96,1.42l-5.65-2.97c-0.39-0.21-0.86-0.21-1.26,0l-5.65,2.97
				c-0.99,0.52-2.15-0.32-1.96-1.42l1.08-6.29c0.08-0.44-0.07-0.88-0.39-1.19l-4.57-4.45c-0.8-0.78-0.36-2.14,0.75-2.3l6.32-0.92
				c0.44-0.06,0.82-0.34,1.02-0.74l2.82-5.72C409.66,290.47,411.09,290.47,411.58,291.47z"/>
		</g>
	</g>
</g>
<g>
</g>
<g>
</g>
<g>
</g>
<g>
</g>
<g>
</g>
<g>
</g>
</svg>
